<?xml version="1.0" encoding="UTF-8"?><svg id="_层_1" xmlns="http://www.w3.org/2000/svg" xmlns:xlink="http://www.w3.org/1999/xlink" viewBox="0 0 1021.54 890"><defs><style>.cls-1,.cls-2,.cls-3{mix-blend-mode:multiply;}.cls-1,.cls-4{fill:#e9ddb7;}.cls-5,.cls-3{fill:#a6d0e4;}.cls-6{opacity:.7;}.cls-2,.cls-7{fill:#c6dd7f;}.cls-8{fill:#5f9ea0;}.cls-9{fill:none;}.cls-10{fill:#e94728;}.cls-11{fill:url(#_白花);}</style><pattern id="_白花" x="0" y="0" width="144.13" height="138.36" patternTransform="translate(-178.46 -155)" patternUnits="userSpaceOnUse" viewBox="0 0 144.13 138.36"><g><rect class="cls-9" x="0" width="144.13" height="138.36"/><path class="cls-2" d="M211.07,158.52c-11.76-1.38-19.37,.35-22.65,3.11-3.02,2.54-4.95,5.41-2.25,11.93,2.94,7.09,1.53,14.73-5.54,15.91-6.22,1.04-10.89-4.84-11.24-12.28-.24-5.18-1.9-8.3-5.53-7.61-3.63,.69-4.63,5.9-3.63,11.76,1.38,8.13,5.54,11.76,6.23,20.23,.49,6.05-2.94,13.66-12.45,15.04-9.3,1.35-15.91-4.32-16.6-10.55-.73-6.59,3.63-10.89,3.11-17.64-.52-6.75-4.01-10.17-5.88-17.29-2.77-10.55,1.21-19.02,7.78-22.65,14.75-8.15,22.83,3.64,35.97,1.56,10.9-1.73,23.35-18.16,33.03-19.54,8.23-1.17,13.83,4.67,15.04,14.01,1.21,9.34-4.74,15.26-15.39,14.01Zm-42.2,.52c0-2.29-1.86-4.15-4.15-4.15s-4.15,1.86-4.15,4.15,1.86,4.15,4.15,4.15,4.15-1.86,4.15-4.15Zm49.46-15.39c0-.96-.78-1.73-1.73-1.73s-1.73,.77-1.73,1.73,.77,1.73,1.73,1.73,1.73-.77,1.73-1.73Z"/><g><path class="cls-1" d="M48.83,139.33c0,7.17,4.59,13.81-1,16.33-8.5,3.83-28-14.33-28-36.17,0-12,8.67-19,17.83-19,12.33,0,18,8.17,18,17.5s-6.83,13.14-6.83,21.33Zm-5.41-5.37c0-1.15-.93-2.08-2.07-2.08s-2.08,.93-2.08,2.08,.93,2.08,2.08,2.08,2.07-.93,2.07-2.08Z"/><path class="cls-3" d="M123.53,162.83c-7.87,2.74-19.44-15.3-17.67-27.02,1.24-8.23,7.12-13.19,13.09-14.22,7.53-1.3,12.9,2.6,13.3,7.24,.55,6.31-3.63,7.52-4.22,14.96-.56,7.13,3.69,16.19-4.49,19.03Zm-3.79-27.51c0-1.43-1.16-2.59-2.59-2.59s-2.59,1.16-2.59,2.59,1.16,2.59,2.59,2.59,2.59-1.16,2.59-2.59Z"/><path class="cls-1" d="M19.39,140.36c0,1.43-1.16,2.59-2.59,2.59s-2.59-1.16-2.59-2.59,1.16-2.59,2.59-2.59,2.59,1.16,2.59,2.59Z"/><path class="cls-3" d="M84.61,132.64c.74,8.1,12.67,7.02,17.9,14.21,10.52,14.47-1.22,46.37-21.63,46.37-11.74,0-24.22-9.72-24.22-29.22,0-15.83,10.17-21.5,8.25-42.17-1.01-10.83-12.5-20.34-12.5-34.75,0-5.92,3.59-13.45,11.55-13.45,7.05,0,10.82,5.95,10.82,12.9s-5.38,15.74,1.37,19.05c5.24,2.57,13.21-4.77,19.5-6.75,5.19-1.64,12.39,.22,14.75,8.5,2.53,8.88-3.25,14.75-11.59,16.69-6.32,1.48-14.8,2.17-14.21,8.61Zm-15.98-30.56c0-1.82-1.47-3.29-3.29-3.29s-3.29,1.47-3.29,3.29,1.47,3.29,3.29,3.29,3.29-1.47,3.29-3.29Zm25.98,9.7c1.29,0,2.33-1.04,2.33-2.33s-1.04-2.33-2.33-2.33-2.33,1.04-2.33,2.33,1.04,2.33,2.33,2.33Zm-19.98,59.67c0-1.82-1.47-3.29-3.29-3.29s-3.29,1.47-3.29,3.29,1.47,3.29,3.29,3.29,3.29-1.47,3.29-3.29Z"/><path class="cls-2" d="M66.94,158.52c-11.76-1.38-19.37,.35-22.65,3.11-3.02,2.54-4.95,5.41-2.25,11.93,2.94,7.09,1.53,14.73-5.54,15.91-6.22,1.04-10.89-4.84-11.24-12.28-.24-5.18-1.9-8.3-5.53-7.61-3.63,.69-4.63,5.9-3.63,11.76,1.38,8.13,5.54,11.76,6.23,20.23,.49,6.05-2.94,13.66-12.45,15.04-9.3,1.35-15.91-4.32-16.6-10.55-.73-6.59,3.63-10.89,3.11-17.64-.52-6.75-4.01-10.17-5.88-17.29-2.77-10.55,1.21-19.02,7.78-22.65,14.75-8.15,22.83,3.64,35.97,1.56,10.9-1.73,23.35-18.16,33.03-19.54,8.23-1.17,13.83,4.67,15.04,14.01,1.21,9.34-4.74,15.26-15.39,14.01Zm-42.2,.52c0-2.29-1.86-4.15-4.15-4.15s-4.15,1.86-4.15,4.15,1.86,4.15,4.15,4.15,4.15-1.86,4.15-4.15Zm49.46-15.39c0-.96-.78-1.73-1.73-1.73s-1.73,.77-1.73,1.73,.77,1.73,1.73,1.73,1.73-.77,1.73-1.73Z"/></g><g><path class="cls-3" d="M190.32,111.99c0,6.23-4.15,10.72-8.65,11.59-4.5,.87-8.32-1.28-12.97,1.21-4.84,2.59-7.09,11.07-16.78,11.07-7.96,0-15.22-7.96-15.22-18.85,0-20.23,13.14-29.23,25.59-29.23,16.6,0,28.02,12.62,28.02,24.21Zm-19.71-14.35c0-2.1-1.7-3.8-3.8-3.8s-3.8,1.7-3.8,3.8,1.7,3.8,3.8,3.8,3.8-1.7,3.8-3.8Z"/><path class="cls-2" d="M211.07,20.16c-11.76-1.38-19.37,.35-22.65,3.11-3.02,2.54-4.95,5.41-2.25,11.93,2.94,7.09,1.53,14.73-5.54,15.91-6.22,1.04-10.89-4.84-11.24-12.28-.24-5.18-1.9-8.3-5.53-7.61-3.63,.69-4.63,5.9-3.63,11.76,1.38,8.13,5.54,11.76,6.23,20.23,.49,6.05-2.94,13.66-12.45,15.04-9.3,1.35-15.91-4.32-16.6-10.55-.73-6.59,3.63-10.89,3.11-17.64-.52-6.75-4.01-10.17-5.88-17.29-2.77-10.55,1.21-19.02,7.78-22.65,14.75-8.15,22.83,3.64,35.97,1.56,10.9-1.73,23.35-18.16,33.03-19.54,8.23-1.17,13.83,4.67,15.04,14.01,1.21,9.34-4.74,15.26-15.39,14.01Zm-42.2,.52c0-2.29-1.86-4.15-4.15-4.15s-4.15,1.86-4.15,4.15,1.86,4.15,4.15,4.15,4.15-1.86,4.15-4.15Zm49.46-15.39c0-.96-.78-1.73-1.73-1.73s-1.73,.77-1.73,1.73,.77,1.73,1.73,1.73,1.73-.77,1.73-1.73Z"/></g><g><path class="cls-3" d="M31.83,83.64c-13.96,1.99-21.17-13.33-17.67-20.33,3.67-7.33,12.12-4.17,19.5-4.17,9.67,0,16.37-7.57,20.42-2.25,4.25,5.58-5.01,24.29-22.25,26.75Zm.52-17.48c0-1.24-1.01-2.25-2.25-2.25s-2.25,1.01-2.25,2.25,1.01,2.25,2.25,2.25,2.25-1.01,2.25-2.25Z"/><path class="cls-1" d="M48.83,.97c0,7.17,4.59,13.81-1,16.33-8.5,3.83-28-14.33-28-36.17,0-12,8.67-19,17.83-19,12.33,0,18,8.17,18,17.5S48.83-7.22,48.83,.97Zm-5.41-5.37c0-1.15-.93-2.08-2.07-2.08s-2.08,.93-2.08,2.08,.93,2.08,2.08,2.08,2.07-.93,2.07-2.08Z"/><path class="cls-3" d="M46.19,111.99c0,6.23-4.15,10.72-8.65,11.59-4.5,.87-8.32-1.28-12.97,1.21-4.84,2.59-7.09,11.07-16.78,11.07-7.96,0-15.22-7.96-15.22-18.85,0-20.23,13.14-29.23,25.59-29.23,16.6,0,28.02,12.62,28.02,24.21Zm-19.71-14.35c0-2.1-1.7-3.8-3.8-3.8s-3.8,1.7-3.8,3.8,1.7,3.8,3.8,3.8,3.8-1.7,3.8-3.8Z"/><path class="cls-2" d="M45.5,88.3c0,1.34-1.08,2.42-2.42,2.42s-2.42-1.08-2.42-2.42,1.08-2.42,2.42-2.42,2.42,1.08,2.42,2.42Z"/><path class="cls-3" d="M129.2,69.79c-3.19,4.68,1.04,10.72-1.38,15.22-2.42,4.5-6.74,5.02-9.86,2.6-3.63-2.83-3.41-6.64-8.3-8.82-5.53-2.46-17.98,2.25-19.71-7.26-.87-4.81,2.37-8.57,7.26-9.68,6.05-1.38,9.35-.18,15.39-3.11,6.05-2.94,11.24-8.99,22.14-12.11,10.41-2.97,16.07,1.56,16.6,5.88,1.04,8.47-17.13,9.95-22.14,17.29Zm-2.25-7.44c0-1.24-1.01-2.25-2.25-2.25s-2.25,1.01-2.25,2.25,1.01,2.25,2.25,2.25,2.25-1.01,2.25-2.25Z"/><path class="cls-1" d="M156.17,108.97c0,17.17-14.5,25.5-27,22.83-10.26-2.19-12.83-17.33-16.67-26.17-3.71-8.56-8.83-22.5-20.17-22.5s-12.83,14.5-23.67,14.5-24.5-15.67-24.5-39.67c0-14.67,9.8-31.46,20.83-30.67,11.67,.83,4.5,19.67,15.33,19.67,9.5,0,7.86-16.26,9.17-23.33,1.67-9,6.83-14.17,18.5-13.17,14.44,1.24,22.33,13.5,18.87,23.34-4.03,11.45-23.87,17.32-21.54,30.49,1.35,7.59,13,12,26,16.17,14.53,4.66,24.83,11.33,24.83,28.5ZM111.21,33.13c0,1.82,1.47,3.29,3.29,3.29s3.29-1.47,3.29-3.29-1.47-3.29-3.29-3.29-3.29,1.47-3.29,3.29Zm-46.69,24.9c0-.96-.77-1.73-1.73-1.73s-1.73,.78-1.73,1.73,.78,1.73,1.73,1.73,1.73-.77,1.73-1.73Zm17.47,10.72c0-2.1-1.7-3.8-3.8-3.8s-3.8,1.7-3.8,3.8,1.71,3.8,3.8,3.8,3.8-1.7,3.8-3.8Zm19.89-15.56c0-.86-.7-1.56-1.56-1.56s-1.56,.7-1.56,1.56,.7,1.56,1.56,1.56,1.56-.7,1.56-1.56Zm29.64,54.69c0-1.75-1.42-3.17-3.17-3.17s-3.17,1.42-3.17,3.17,1.42,3.17,3.17,3.17,3.17-1.42,3.17-3.17Z"/><path class="cls-3" d="M123.53,24.47c-7.87,2.74-19.44-15.3-17.67-27.02,1.24-8.23,7.12-13.19,13.09-14.22,7.53-1.3,12.9,2.6,13.3,7.24,.55,6.31-3.63,7.52-4.22,14.96-.56,7.13,3.69,16.19-4.49,19.03Zm-3.79-27.51c0-1.43-1.16-2.59-2.59-2.59s-2.59,1.16-2.59,2.59,1.16,2.59,2.59,2.59,2.59-1.16,2.59-2.59Z"/><path class="cls-1" d="M19.39,2c0,1.43-1.16,2.59-2.59,2.59s-2.59-1.16-2.59-2.59,1.16-2.59,2.59-2.59,2.59,1.16,2.59,2.59Z"/><path class="cls-1" d="M153.38,88.74c0-8.41-5.08-15.23-11.34-15.23s-11.34,6.82-11.34,15.23,5.08,12.44,11.34,12.44,11.34-4.03,11.34-12.44Z"/><path class="cls-3" d="M84.61-5.72c.74,8.1,12.67,7.02,17.9,14.21,10.52,14.47-1.22,46.37-21.63,46.37-11.74,0-24.22-9.72-24.22-29.22,0-15.83,10.17-21.5,8.25-42.17-1.01-10.83-12.5-20.34-12.5-34.75,0-5.92,3.59-13.45,11.55-13.45,7.05,0,10.82,5.95,10.82,12.9s-5.38,15.74,1.37,19.05c5.24,2.57,13.21-4.77,19.5-6.75,5.19-1.64,12.39,.22,14.75,8.5,2.53,8.88-3.25,14.75-11.59,16.69-6.32,1.48-14.8,2.17-14.21,8.61Zm-15.98-30.56c0-1.82-1.47-3.29-3.29-3.29s-3.29,1.47-3.29,3.29,1.47,3.29,3.29,3.29,3.29-1.47,3.29-3.29Zm25.98,9.7c1.29,0,2.33-1.04,2.33-2.33s-1.04-2.33-2.33-2.33-2.33,1.04-2.33,2.33,1.04,2.33,2.33,2.33Zm-19.98,59.67c0-1.82-1.47-3.29-3.29-3.29s-3.29,1.47-3.29,3.29,1.47,3.29,3.29,3.29,3.29-1.47,3.29-3.29Z"/><path class="cls-2" d="M66.94,20.16c-11.76-1.38-19.37,.35-22.65,3.11-3.02,2.54-4.95,5.41-2.25,11.93,2.94,7.09,1.53,14.73-5.54,15.91-6.22,1.04-10.89-4.84-11.24-12.28-.24-5.18-1.9-8.3-5.53-7.61-3.63,.69-4.63,5.9-3.63,11.76,1.38,8.13,5.54,11.76,6.23,20.23,.49,6.05-2.94,13.66-12.45,15.04-9.3,1.35-15.91-4.32-16.6-10.55-.73-6.59,3.63-10.89,3.11-17.64-.52-6.75-4.01-10.17-5.88-17.29-2.77-10.55,1.21-19.02,7.78-22.65,14.75-8.15,22.83,3.64,35.97,1.56,10.9-1.73,23.35-18.16,33.03-19.54,8.23-1.17,13.83,4.67,15.04,14.01,1.21,9.34-4.74,15.26-15.39,14.01Zm-42.2,.52c0-2.29-1.86-4.15-4.15-4.15s-4.15,1.86-4.15,4.15,1.86,4.15,4.15,4.15,4.15-1.86,4.15-4.15ZM74.21,5.29c0-.96-.78-1.73-1.73-1.73s-1.73,.77-1.73,1.73,.77,1.73,1.73,1.73,1.73-.77,1.73-1.73Z"/><path class="cls-2" d="M130.24,42.47c0,.76-.62,1.38-1.38,1.38s-1.38-.62-1.38-1.38,.62-1.38,1.38-1.38,1.38,.62,1.38,1.38Z"/><path class="cls-4" d="M135.77,4.08c0,1.24-1.01,2.25-2.25,2.25s-2.25-1.01-2.25-2.25,1.01-2.25,2.25-2.25,2.25,1.01,2.25,2.25Z"/><path class="cls-5" d="M52.24,27.25c0,.67-.54,1.21-1.21,1.21s-1.21-.54-1.21-1.21,.54-1.21,1.21-1.21,1.21,.54,1.21,1.21Z"/><path class="cls-5" d="M48.61,95.73c0,.76-.62,1.38-1.38,1.38s-1.38-.62-1.38-1.38,.62-1.38,1.38-1.38,1.38,.62,1.38,1.38Z"/><path class="cls-1" d="M133.18,73.77c0,.67-.54,1.21-1.21,1.21s-1.21-.54-1.21-1.21,.54-1.21,1.21-1.21,1.21,.54,1.21,1.21Z"/><path class="cls-7" d="M95.89,91.69c0,1.88-1.53,3.41-3.41,3.41s-3.41-1.53-3.41-3.41,1.53-3.41,3.41-3.41,3.41,1.53,3.41,3.41Z"/><path class="cls-1" d="M100.87,131.55c0,1.16-.94,2.1-2.1,2.1s-2.1-.94-2.1-2.1,.94-2.1,2.1-2.1,2.1,.94,2.1,2.1Z"/><path class="cls-1" d="M62.07,125.25c0,.87-.7,1.57-1.57,1.57s-1.57-.7-1.57-1.57,.71-1.57,1.57-1.57,1.57,.71,1.57,1.57Z"/><circle class="cls-7" cx="133.12" cy="11.21" r="2.62"/><circle class="cls-3" cx="123.15" cy="46.07" r="2.36"/><path class="cls-4" d="M27.72,52.63c0,1.45-1.17,2.62-2.62,2.62s-2.62-1.17-2.62-2.62,1.17-2.62,2.62-2.62,2.62,1.17,2.62,2.62Z"/><path class="cls-3" d="M22.74,45.55c0,.72-.59,1.31-1.31,1.31s-1.31-.59-1.31-1.31,.59-1.31,1.31-1.31,1.31,.59,1.31,1.31Z"/><path class="cls-1" d="M86.98,97.46c0,.87-.71,1.57-1.57,1.57s-1.57-.7-1.57-1.57,.7-1.57,1.57-1.57,1.57,.71,1.57,1.57Z"/></g><g><path class="cls-3" d="M-14.93,69.79c-3.19,4.68,1.04,10.72-1.38,15.22-2.42,4.5-6.74,5.02-9.86,2.6-3.63-2.83-3.41-6.64-8.3-8.82-5.53-2.46-17.98,2.25-19.71-7.26-.88-4.81,2.38-8.57,7.26-9.68,6.05-1.38,9.35-.18,15.39-3.11,6.05-2.94,11.24-8.99,22.14-12.11,10.41-2.97,16.07,1.56,16.6,5.88,1.04,8.47-17.13,9.95-22.14,17.29Zm-2.25-7.44c0-1.24-1.01-2.25-2.25-2.25s-2.25,1.01-2.25,2.25,1.01,2.25,2.25,2.25,2.25-1.01,2.25-2.25Z"/><path class="cls-1" d="M12.04,108.97c0,17.17-14.5,25.5-27,22.83-10.26-2.19-12.83-17.33-16.67-26.17-3.71-8.56-8.83-22.5-20.17-22.5s-12.83,14.5-23.67,14.5-24.5-15.67-24.5-39.67c0-14.67,9.8-31.46,20.83-30.67,11.67,.83,4.5,19.67,15.33,19.67,9.5,0,7.86-16.26,9.17-23.33,1.67-9,6.83-14.17,18.5-13.17,14.44,1.24,22.33,13.5,18.87,23.34-4.03,11.45-23.87,17.32-21.54,30.49,1.35,7.59,13,12,26,16.17,14.53,4.66,24.83,11.33,24.83,28.5ZM-32.91,33.13c0,1.82,1.47,3.29,3.29,3.29s3.29-1.47,3.29-3.29-1.47-3.29-3.29-3.29-3.29,1.47-3.29,3.29Zm-46.69,24.9c0-.96-.77-1.73-1.73-1.73s-1.73,.78-1.73,1.73,.78,1.73,1.73,1.73,1.73-.77,1.73-1.73Zm17.47,10.72c0-2.1-1.7-3.8-3.8-3.8s-3.8,1.7-3.8,3.8,1.71,3.8,3.8,3.8,3.8-1.7,3.8-3.8Zm19.89-15.56c0-.86-.7-1.56-1.56-1.56s-1.56,.7-1.56,1.56,.7,1.56,1.56,1.56,1.56-.7,1.56-1.56ZM-12.61,107.88c0-1.75-1.42-3.17-3.17-3.17s-3.17,1.42-3.17,3.17,1.42,3.17,3.17,3.17,3.17-1.42,3.17-3.17Z"/><path class="cls-1" d="M9.26,88.74c0-8.41-5.08-15.23-11.34-15.23s-11.34,6.82-11.34,15.23,5.08,12.44,11.34,12.44,11.34-4.03,11.34-12.44Z"/></g></g></pattern></defs><g><path class="cls-11" d="M77.57,724.55c9.17,21.96,11.14,40.93,5.92,56.89-5.23,15.96-17.28,27.88-36.17,35.77-8.37,3.5-16.73,5.3-25.08,5.43l-13.93-33.38c8.09,2.08,16.08,1.48,23.95-1.81,17.03-7.11,20.15-23.58,9.37-49.41L0,638.35l35.42-14.78,42.16,100.99Z"/><path class="cls-11" d="M97.43,697.86c-10.87-26.04-12.12-50.41-3.74-73.11,8.38-22.69,25.05-39.25,50.02-49.68,23.75-9.92,46.17-9.99,67.26-.23,21.09,9.77,36.82,27.06,47.18,51.88,10.81,25.9,12.06,50.06,3.73,72.48-8.33,22.42-24.69,38.72-49.08,48.91-23.82,9.95-46.44,10.21-67.85,.79-21.41-9.42-37.25-26.43-47.52-51.05Zm36.43-17.48c6.75,16.17,16.17,27.76,28.25,34.77,12.08,7.01,24.92,7.68,38.52,2,13.88-5.79,22.63-15.22,26.25-28.29,3.62-13.06,1.96-27.89-4.96-44.49-7.23-17.31-16.7-29.43-28.4-36.35-11.71-6.92-24.4-7.52-38.06-1.82-13.88,5.79-22.66,15.51-26.33,29.14-3.68,13.63-2.09,28.64,4.74,45.03Z"/><path class="cls-11" d="M457.03,642.76l-44.86,18.73-80.66-51.64c-2.06-1.32-4.74-3.61-8.03-6.86l-.54,.22,33.96,81.35-35.42,14.78-69.4-166.24,35.42-14.78,32.79,78.56,.54-.22c.14-4.09,.47-7.72,1-10.88l18.57-89.54,42.28-17.65-26.35,104.13,100.68,60.05Z"/><path class="cls-11" d="M572.19,594.69l-98.41,41.08-69.4-166.24,94.55-39.47,12.1,28.98-59.13,24.69,16.35,39.17,54.95-22.94,12.05,28.87-54.95,22.94,16.8,40.25,63-26.3,12.1,28.98Z"/><path class="cls-11" d="M736.6,526.05l-40.78,17.02-44.13-32.36c-9.1-6.7-15.9-10.63-20.41-11.77-4.51-1.14-8.7-.91-12.56,.71l-10.73,4.48,26.88,64.39-35.42,14.79-69.4-166.24,58.27-24.33c39.56-16.52,65.62-9.75,78.17,20.3,4.72,11.31,5.46,22.38,2.21,33.23-3.24,10.85-9.97,20.34-20.19,28.47l.18,.43c8.73-.62,20.73,4.28,36.01,14.71l51.9,36.18Zm-159.89-96.83l19.98,47.87,17.39-7.26c8.3-3.46,13.96-8.67,16.99-15.6,3.03-6.93,3.03-14.01,.02-21.24-6.27-15.02-18.39-18.79-36.35-11.29l-18.03,7.53Z"/></g><g class="cls-6"><path class="cls-8" d="M576.54,0C330.77,0,131.54,199.23,131.54,445c0,23.57,1.84,46.7,5.37,69.28l537.36-227.97,118.72,279.86-507.63,215.35c78.04,67.59,179.83,108.48,291.18,108.48,245.77,0,445-199.23,445-445S822.3,0,576.54,0ZM310.31,400.92l-82.28-187.59,39.96-17.53,82.28,187.59-39.96,17.53Zm165.17-68.55c-28.26,12.4-54.39,13.77-78.4,4.14-24.01-9.64-42.2-28.54-54.55-56.72-13-29.63-14.36-57.94-4.1-84.91,10.26-26.98,30.04-46.9,59.35-59.75,18.33-8.04,34.71-12.38,49.15-13.04l16.95,38.63c-15.93-1.87-31.94,.72-48,7.77-18.33,8.04-30.41,20.32-36.26,36.84-5.85,16.52-4.62,34.23,3.66,53.12,8.07,18.41,19.78,30.94,35.12,37.59,15.34,6.65,31.89,6.09,49.65-1.71,16.71-7.33,30.16-18.04,40.34-32.14l16.09,36.7c-10.71,12.69-27.04,23.84-49,33.48Zm159.98-70.17c-50.22,22.03-87.28,5.79-111.18-48.71l-47.86-109.12,40.09-17.58,47.96,109.36c13.7,31.24,32.87,41.47,57.49,30.67,24.22-10.62,29.73-30.99,16.52-61.11l-48.71-111.05,39.97-17.53,46.9,106.94c24.54,55.95,10.81,95.33-41.18,118.13Zm206.15,286.68l-94.3-219.11,60.62-26.09,94.3,219.11-60.62,26.09Z"/></g><rect class="cls-10" x="726.66" y="251.42" width="66" height="47.22" rx="14.76" ry="14.76" transform="translate(-46.85 322.73) rotate(-23.29)"/></svg>